<?xml version="1.0" encoding="utf-8"?>
<!-- Generator: Adobe Illustrator 22.0.1, SVG Export Plug-In . SVG Version: 6.00 Build 0)  -->
<svg version="1.1" id="Layer_1" xmlns="http://www.w3.org/2000/svg" xmlns:xlink="http://www.w3.org/1999/xlink" x="0px" y="0px"
	 viewBox="0 0 24 24" style="enable-background:new 0 0 24 24;" xml:space="preserve">
<path d="M21.3,0C22.8,0,24,1.2,24,2.7v18.7c0,1.5-1.2,2.7-2.7,2.7H2.7C1.2,24,0,22.8,0,21.3V2.7C0,1.2,1.2,0,2.7,0H21.3 M20.7,20.7
	v-7.1c0-2.4-1.9-4.3-4.3-4.3c0,0,0,0,0,0c-1.1,0-2.5,0.7-3.1,1.7V9.5H9.5v11.2h3.7v-6.6c0-1,0.8-1.9,1.9-1.9c1,0,1.9,0.8,1.9,1.9
	v6.6H20.7 M5.2,7.4c1.2,0,2.2-1,2.2-2.2v0c0-1.2-1-2.3-2.2-2.3c-1.2,0-2.3,1-2.3,2.3l0,0C2.9,6.4,3.9,7.4,5.2,7.4 M7,20.7V9.5H3.3
	v11.2H7z"/>
</svg>
